<svg width="20" height="20" viewBox="0 0 20 20" fill="none" xmlns="http://www.w3.org/2000/svg">
<g clip-path="url(#clip0_0_4154)">
<path d="M4.27391 3.48011H0.58823C0.263319 3.48011 0 3.21661 0 2.89188C0 2.56714 0.263319 2.30365 0.58823 2.30365H4.27391C4.59882 2.30365 4.86214 2.56714 4.86214 2.89188C4.86214 3.21661 4.59882 3.48011 4.27391 3.48011Z" fill="#0061DF"/>
<path d="M6.37994 5.58609C4.8942 5.58609 3.68555 4.37743 3.68555 2.89183C3.68555 1.40592 4.8942 0.197266 6.37994 0.197266C7.86567 0.197266 9.07433 1.40592 9.07433 2.89183C9.07433 4.37748 7.86567 5.58609 6.37994 5.58609ZM6.37994 1.37377C5.54293 1.37377 4.86201 2.05483 4.86201 2.89183C4.86201 3.72884 5.54293 4.40959 6.37994 4.40959C7.21694 4.40959 7.89787 3.72884 7.89787 2.89183C7.89787 2.05483 7.21694 1.37377 6.37994 1.37377Z" fill="#0061DF"/>
<path d="M19.4117 3.48011H10.62C10.2951 3.48011 10.0317 3.21661 10.0317 2.89188C10.0317 2.56714 10.2951 2.30365 10.62 2.30365H19.4116C19.7365 2.30365 19.9998 2.56714 19.9998 2.89188C19.9998 3.21661 19.7366 3.48011 19.4117 3.48011Z" fill="#0061DF"/>
<path d="M14.2779 12.6943C12.7921 12.6943 11.5835 11.4856 11.5835 10C11.5835 8.51444 12.7922 7.30579 14.2779 7.30579C15.7636 7.30579 16.9723 8.51444 16.9723 10C16.9723 11.4856 15.7637 12.6943 14.2779 12.6943ZM14.2779 8.48229C13.4409 8.48229 12.76 9.16304 12.76 10C12.76 10.837 13.4409 11.5178 14.2779 11.5178C15.1149 11.5178 15.7958 10.837 15.7958 10C15.7958 9.16304 15.1149 8.48229 14.2779 8.48229Z" fill="#0061DF"/>
<path d="M10.0382 10.5881H0.58823C0.263319 10.5881 0 10.3246 0 9.99985C0 9.67512 0.263319 9.41162 0.58823 9.41162H10.0382C10.3631 9.41162 10.6264 9.67512 10.6264 9.99985C10.6264 10.3246 10.3631 10.5881 10.0382 10.5881Z" fill="#0061DF"/>
<path d="M19.4117 10.5881H16.3841C16.0592 10.5881 15.7959 10.3246 15.7959 9.99985C15.7959 9.67512 16.0592 9.41162 16.3841 9.41162H19.4117C19.7366 9.41162 19.9999 9.67512 19.9999 9.99985C19.9999 10.3246 19.7366 10.5881 19.4117 10.5881Z" fill="#0061DF"/>
<path d="M5.72174 19.8029C4.236 19.8029 3.02734 18.5942 3.02734 17.1083C3.02734 15.6227 4.236 14.4141 5.72174 14.4141C7.20747 14.4141 8.41613 15.6227 8.41613 17.1083C8.41613 18.5942 7.20747 19.8029 5.72174 19.8029ZM5.72174 15.5906C4.88473 15.5906 4.2038 16.2713 4.2038 17.1083C4.2038 17.9453 4.88473 18.6264 5.72174 18.6264C6.55874 18.6264 7.23967 17.9453 7.23967 17.1083C7.23967 16.2713 6.55874 15.5906 5.72174 15.5906Z" fill="#0061DF"/>
<path d="M19.4117 17.6964H9.96177C9.63685 17.6964 9.37354 17.4329 9.37354 17.1082C9.37354 16.7835 9.63685 16.52 9.96177 16.52H19.4117C19.7366 16.52 19.9999 16.7835 19.9999 17.1082C19.9999 17.4329 19.7366 17.6964 19.4117 17.6964Z" fill="#0061DF"/>
<path d="M3.61581 17.6965H0.58823C0.263319 17.6965 0 17.433 0 17.1082C0 16.7835 0.263319 16.52 0.58823 16.52H3.61581C3.94072 16.52 4.20404 16.7835 4.20404 17.1082C4.20404 17.433 3.94072 17.6965 3.61581 17.6965Z" fill="#0061DF"/>
</g>
<defs>
<clipPath id="clip0_0_4154">
<rect width="20" height="20" fill="white"/>
</clipPath>
</defs>
</svg>
